<svg xmlns="http://www.w3.org/2000/svg"
  xmlns:xlink="http://www.w3.org/1999/xlink" fill="none" viewBox="0 0 180 180">
  <defs>
    <path id="reuse-0" fill="#fff" d="M0 0h180v180H0z"/>
  </defs>
  <g clip-path="url(#a)">
    <use xlink:href="#reuse-0"/>
    <path fill="#212737" d="M0 0h180v180H0z"/>
    <path fill="#fff" d="M43.195 21.18h20.25c8.46 0 14.73 2.7 18.81 8.1 4.08 5.4 6.12 13.17 6.12 23.31 0 10.14-2.04 17.91-6.12 23.31-4.08 5.4-10.35 8.1-18.81 8.1h-20.25V21.18Zm19.35 52.2c4.02 0 6.96-1.29 8.82-3.87 1.86-2.58 2.79-6.33 2.79-11.25V46.83c0-4.86-.93-8.58-2.79-11.16-1.86-2.58-4.8-3.87-8.82-3.87h-6.03v41.58h6.03Zm61.975-15.66h-15.84V84H95.09V21.18h13.59v25.47h15.84V21.18h13.59V84h-13.59V57.72ZM17.113 101.18h20.25c8.46 0 14.73 2.7 18.81 8.1 4.08 5.4 6.12 13.17 6.12 23.31 0 10.14-2.04 17.91-6.12 23.31-4.08 5.4-10.35 8.1-18.81 8.1h-20.25v-62.82Zm19.35 52.2c4.02 0 6.96-1.29 8.82-3.87 1.86-2.58 2.79-6.33 2.79-11.25v-11.43c0-4.86-.93-8.58-2.79-11.16-1.86-2.58-4.8-3.87-8.82-3.87h-6.03v41.58h6.03ZM70.718 164v-62.82h40.14v11.07h-26.64v14.4h25.74v11.07h-25.74v15.21h26.64V164h-40.14Zm62.424 0-16.65-62.82h15.03l7.38 31.95 3.69 18.09h.72l3.78-18.09 7.47-31.95h14.31L152.222 164h-19.08Z"/>
  </g>
  <defs>
    <clipPath id="a">
      <use xlink:href="#reuse-0"/>
    </clipPath>
  </defs>
</svg>